<svg width="18" height="19" viewBox="0 0 18 19" fill="none" xmlns="http://www.w3.org/2000/svg">
<g clip-path="url(#clip0_1535_6166)">
<path d="M0.731445 4.52814V14.4719H5.53562C5.98067 14.4719 9.0455 14.3816 9.0455 11.5828C9.0455 9.8338 7.84257 9.23933 7.23197 9.06303C7.68132 8.85125 8.57572 8.34707 8.57572 6.99741C8.57572 6.24545 8.46822 4.52814 5.40125 4.52814H0.731445ZM11.683 5.4521V6.35886H15.395V5.45264L11.683 5.4521ZM2.91477 6.22449H4.96426C5.15776 6.22449 6.45905 6.12182 6.45905 7.36667C6.45905 8.43092 5.51842 8.54272 5.13196 8.54272H2.91585L2.91477 6.22449ZM13.6314 7.18177C10.8241 7.18177 10.2382 9.61988 10.2382 10.6755C10.2382 13.8108 12.8085 14.1693 13.6314 14.1693C15.8508 14.1693 16.4802 12.7336 16.7387 11.9354H15.1262C15.0633 12.1413 14.593 12.8089 13.6986 12.8089C12.199 12.8089 12.0695 11.6371 12.0695 11.1125H16.8398C16.9365 9.29845 16.1426 7.18177 13.6314 7.18177V7.18177ZM13.5809 8.54272C14.0281 8.54272 14.3893 8.6728 14.6059 8.91199C14.822 9.15386 14.9816 9.50646 15.0252 9.97032H12.0689C12.0775 9.8424 12.1071 9.69513 12.1533 9.53334C12.1995 9.36779 12.271 9.2103 12.3887 9.06303C12.5059 8.91844 12.6699 8.79266 12.8591 8.69376C13.052 8.59271 13.2912 8.54272 13.5809 8.54272V8.54272ZM2.91531 10.0375H5.28353C5.75385 10.0375 6.86217 10.1111 6.86217 11.4651C6.86217 12.7777 5.46628 12.7755 5.24967 12.7755H2.91477L2.91531 10.0375Z" fill="#225BF9"/>
</g>
<defs>
<clipPath id="clip0_1535_6166">
<rect width="17.2" height="17.2" fill="white" transform="translate(0.194336 0.900024)"/>
</clipPath>
</defs>
</svg>
