<svg width="38" height="47" viewBox="0 0 38 47" fill="none" xmlns="http://www.w3.org/2000/svg">
<path d="M20.5687 24.7727V33.5H18.7235V26.5241H18.6724L16.6738 27.777V26.1406L18.8343 24.7727H20.5687Z" fill="black"/>
<path d="M5.79844 17.3575C5.8732 16.3109 6.74408 15.5 7.79336 15.5H30.2066C31.2559 15.5 32.1268 16.3109 32.2016 17.3575L33.773 39.3575C33.8557 40.5152 32.9388 41.5 31.7781 41.5H6.22193C5.06124 41.5 4.14432 40.5152 4.22701 39.3575L5.79844 17.3575Z" fill="black" stroke="black" stroke-width="2"/>
<path d="M26 19.5V11.5C26 7.63401 22.866 4.5 19 4.5V4.5C15.134 4.5 12 7.63401 12 11.5V19.5" stroke="black" stroke-width="2" stroke-linecap="round"/>
<path d="M15.4041 34.5V32.7273L19.5462 28.892C19.8984 28.5511 20.1939 28.2443 20.4325 27.9716C20.675 27.6989 20.8587 27.4318 20.9837 27.1705C21.1087 26.9053 21.1712 26.6193 21.1712 26.3125C21.1712 25.9716 21.0935 25.678 20.9382 25.4318C20.7829 25.1818 20.5708 24.9905 20.3018 24.858C20.0329 24.7216 19.728 24.6534 19.3871 24.6534C19.031 24.6534 18.7204 24.7254 18.4553 24.8693C18.1901 25.0133 17.9856 25.2197 17.8416 25.4886C17.6977 25.7576 17.6257 26.0777 17.6257 26.4489H15.2905C15.2905 25.6875 15.4628 25.0265 15.8075 24.4659C16.1522 23.9053 16.6352 23.4716 17.2564 23.1648C17.8776 22.858 18.5935 22.7045 19.4041 22.7045C20.2375 22.7045 20.9628 22.8523 21.5803 23.1477C22.2015 23.4394 22.6844 23.8447 23.0291 24.3636C23.3738 24.8826 23.5462 25.4773 23.5462 26.1477C23.5462 26.5871 23.459 27.0208 23.2848 27.4489C23.1143 27.8769 22.8094 28.3523 22.37 28.875C21.9306 29.3939 21.3113 30.017 20.5121 30.7443L18.8132 32.4091V32.4886H23.6996V34.5H15.4041Z" fill="white"/>
</svg>
