<svg width="38" height="47" viewBox="0 0 38 47" fill="none" xmlns="http://www.w3.org/2000/svg">
<path d="M20.5687 24.7727V33.5H18.7235V26.5241H18.6724L16.6738 27.777V26.1406L18.8343 24.7727H20.5687Z" fill="white"/>
<path d="M5.79844 17.3575C5.8732 16.3109 6.74408 15.5 7.79336 15.5H30.2066C31.2559 15.5 32.1268 16.3109 32.2016 17.3575L33.773 39.3575C33.8557 40.5152 32.9388 41.5 31.7781 41.5H6.22193C5.06124 41.5 4.14432 40.5152 4.22701 39.3575L5.79844 17.3575Z" fill="white" stroke="black" stroke-width="2"/>
<path d="M26 19.5V11.5C26 7.63401 22.866 4.5 19 4.5V4.5C15.134 4.5 12 7.63401 12 11.5V19.5" stroke="black" stroke-width="2" stroke-linecap="round"/>
<path d="M21.0916 22.8636V34.5H18.6314V25.1989H18.5632L15.8984 26.8693V24.6875L18.7791 22.8636H21.0916Z" fill="white"/>
</svg>
