<svg width="41" height="41" viewBox="0 0 41 41" fill="none" xmlns="http://www.w3.org/2000/svg">
<path d="M26.5519 1.5H14.8101C5.02527 1.5 1.11133 5.41667 1.11133 15.2083V26.9583C1.11133 34.3608 3.34227 38.4146 8.66523 39.9225C9.09576 34.8308 14.3209 30.8162 20.681 30.8162C27.0412 30.8162 32.2663 34.8308 32.6968 39.9225C38.0198 38.4146 40.2507 34.3608 40.2507 26.9583V15.2083C40.2507 5.41667 36.3368 1.5 26.5519 1.5ZM20.681 25.3329C16.8062 25.3329 13.6751 22.18 13.6751 18.3025C13.6751 14.425 16.8062 11.2917 20.681 11.2917C24.5558 11.2917 27.687 14.425 27.687 18.3025C27.687 22.18 24.5558 25.3329 20.681 25.3329Z" stroke="black" stroke-width="1.5" stroke-linecap="round" stroke-linejoin="round"/>
</svg>
