<svg width="156" height="78" viewBox="0 0 156 78" fill="none" xmlns="http://www.w3.org/2000/svg">
<path d="M66.3984 33.3398L65.3613 34.0254C64.7285 33.0879 63.9023 32.3496 62.8828 31.8105C61.875 31.2598 60.7793 30.9844 59.5957 30.9844C57.6738 30.9844 56.0332 31.6641 54.6738 33.0234C53.3145 34.3828 52.6348 36.0234 52.6348 37.9453C52.6348 39.8672 53.3145 41.5078 54.6738 42.8672C56.0332 44.2266 57.6738 44.9062 59.5957 44.9062C60.7793 44.9062 61.875 44.6309 62.8828 44.0801C63.9023 43.5293 64.7285 42.7852 65.3613 41.8477L66.3809 42.5859C65.6309 43.6875 64.6582 44.5605 63.4629 45.2051C62.2676 45.8496 60.9785 46.1719 59.5957 46.1719C58.4824 46.1719 57.416 45.9551 56.3965 45.5215C55.3887 45.0879 54.5156 44.502 53.7773 43.7637C53.0391 43.0254 52.4531 42.1523 52.0195 41.1445C51.5859 40.125 51.3691 39.0586 51.3691 37.9453C51.3691 36.832 51.5859 35.7715 52.0195 34.7637C52.4531 33.7441 53.0391 32.8652 53.7773 32.127C54.5156 31.3887 55.3887 30.8027 56.3965 30.3691C57.416 29.9355 58.4824 29.7188 59.5957 29.7188C60.9902 29.7188 62.2852 30.0469 63.4805 30.7031C64.6758 31.3477 65.6484 32.2266 66.3984 33.3398ZM68.4902 31.8984L67.4355 32.584C66.5684 31.3184 65.4434 30.3164 64.0605 29.5781C62.6895 28.8281 61.2012 28.4531 59.5957 28.4531C57.873 28.4531 56.2852 28.8809 54.832 29.7363C53.3789 30.5801 52.2246 31.7285 51.3691 33.1816C50.5254 34.6348 50.1035 36.2227 50.1035 37.9453C50.1035 39.668 50.5254 41.2559 51.3691 42.709C52.2246 44.1621 53.3789 45.3164 54.832 46.1719C56.2852 47.0156 57.873 47.4375 59.5957 47.4375C61.2012 47.4375 62.6953 47.0625 64.0781 46.3125C65.4609 45.5625 66.5859 44.5488 67.4531 43.2715L68.4902 43.9922C67.5059 45.4453 66.2285 46.5938 64.6582 47.4375C63.0996 48.2812 61.4121 48.7031 59.5957 48.7031C57.6504 48.7031 55.8516 48.2227 54.1992 47.2617C52.5469 46.3008 51.2402 44.9941 50.2793 43.3418C49.3184 41.6895 48.8379 39.8906 48.8379 37.9453C48.8379 36 49.3184 34.2012 50.2793 32.5488C51.2402 30.8965 52.5469 29.5898 54.1992 28.6289C55.8516 27.668 57.6504 27.1875 59.5957 27.1875C61.4121 27.1875 63.0996 27.6094 64.6582 28.4531C66.2285 29.2969 67.5059 30.4453 68.4902 31.8984ZM70.5996 30.4922L69.5449 31.1777C68.4434 29.5605 67.0137 28.2832 65.2559 27.3457C63.5098 26.3965 61.623 25.9219 59.5957 25.9219C57.9668 25.9219 56.4082 26.2383 54.9199 26.8711C53.4316 27.5039 52.1484 28.3594 51.0703 29.4375C50.0039 30.5039 49.1543 31.7812 48.5215 33.2695C47.8887 34.7578 47.5723 36.3164 47.5723 37.9453C47.5723 39.5742 47.8887 41.1328 48.5215 42.6211C49.1543 44.1094 50.0039 45.3926 51.0703 46.4707C52.1484 47.5371 53.4316 48.3867 54.9199 49.0195C56.4082 49.6523 57.9668 49.9688 59.5957 49.9688C61.6348 49.9688 63.5273 49.4941 65.2734 48.5449C67.0195 47.5957 68.4434 46.3125 69.5449 44.6953L70.5645 45.4512C69.3457 47.2324 67.7695 48.6445 65.8359 49.6875C63.9141 50.7188 61.834 51.2344 59.5957 51.2344C57.1934 51.2344 54.9727 50.6426 52.9336 49.459C50.8945 48.2637 49.2773 46.6465 48.082 44.6074C46.8984 42.5684 46.3066 40.3477 46.3066 37.9453C46.3066 35.543 46.8984 33.3223 48.082 31.2832C49.2773 29.2441 50.8945 27.6328 52.9336 26.4492C54.9727 25.2539 57.1934 24.6562 59.5957 24.6562C61.8457 24.6562 63.9375 25.1836 65.8711 26.2383C67.8047 27.2812 69.3809 28.6992 70.5996 30.4922ZM72.6738 29.0508L71.6191 29.7363C70.2832 27.7793 68.5547 26.2324 66.4336 25.0957C64.3242 23.959 62.0449 23.3906 59.5957 23.3906C57.627 23.3906 55.7402 23.7773 53.9355 24.5508C52.1426 25.3125 50.5957 26.3438 49.2949 27.6445C47.9941 28.9453 46.957 30.498 46.1836 32.3027C45.4219 34.0957 45.041 35.9766 45.041 37.9453C45.041 39.9141 45.4219 41.8008 46.1836 43.6055C46.957 45.3984 47.9941 46.9453 49.2949 48.2461C50.5957 49.5469 52.1426 50.584 53.9355 51.3574C55.7402 52.1191 57.627 52.5 59.5957 52.5C62.0449 52.5 64.3301 51.9258 66.4512 50.7773C68.5723 49.6289 70.3008 48.0762 71.6367 46.1191L72.6562 46.8926C71.2031 49.002 69.3281 50.6777 67.0312 51.9199C64.7344 53.1504 62.2559 53.7656 59.5957 53.7656C57.4512 53.7656 55.4004 53.3438 53.4434 52.5C51.498 51.668 49.8164 50.5488 48.3984 49.1426C46.9922 47.7246 45.8672 46.043 45.0234 44.0977C44.1914 42.1406 43.7754 40.0898 43.7754 37.9453C43.7754 35.8008 44.1914 33.7559 45.0234 31.8105C45.8672 29.8535 46.9922 28.1719 48.3984 26.7656C49.8164 25.3477 51.498 24.2227 53.4434 23.3906C55.4004 22.5469 57.4512 22.125 59.5957 22.125C62.2676 22.125 64.752 22.7461 67.0488 23.9883C69.3457 25.2305 71.2207 26.918 72.6738 29.0508Z" fill="#CF6E37"/>
<path d="M90.5156 44.9062V30.9844C90.5156 30.9844 93.3926 30.9844 99.1465 30.9844C100.541 30.9844 101.736 31.6699 102.732 33.041C103.74 34.4004 104.244 36.0352 104.244 37.9453C104.244 39.8672 103.74 41.5078 102.732 42.8672C101.736 44.2266 100.541 44.9062 99.1465 44.9062H90.5156ZM91.7812 43.6406H99.1465C100.189 43.6406 101.08 43.084 101.818 41.9707C102.568 40.8574 102.943 39.5156 102.943 37.9453C102.943 36.3633 102.568 35.0215 101.818 33.9199C101.08 32.8066 100.189 32.25 99.1465 32.25H91.7812V43.6406ZM89.25 46.1719H99.1465C100.893 46.1719 102.393 45.3691 103.646 43.7637C104.912 42.1465 105.545 40.207 105.545 37.9453C105.545 36.457 105.252 35.0801 104.666 33.8145C104.092 32.5488 103.312 31.5527 102.328 30.8262C101.355 30.0879 100.295 29.7188 99.1465 29.7188H89.25V46.1719ZM87.9844 47.4375V28.4531H99.1465C100.518 28.4531 101.795 28.875 102.979 29.7188C104.162 30.5625 105.1 31.7168 105.791 33.1816C106.494 34.6348 106.846 36.2227 106.846 37.9453C106.846 39.6562 106.494 41.2441 105.791 42.709C105.1 44.1738 104.162 45.3281 102.979 46.1719C101.795 47.0156 100.518 47.4375 99.1465 47.4375H87.9844ZM86.7188 48.7031H99.1465C100.752 48.7031 102.24 48.2227 103.611 47.2617C104.994 46.3008 106.096 44.9941 106.916 43.3418C107.736 41.6895 108.146 39.8906 108.146 37.9453C108.146 36.0117 107.736 34.2188 106.916 32.5664C106.096 30.9023 104.994 29.5898 103.611 28.6289C102.229 27.668 100.74 27.1875 99.1465 27.1875H86.7188V48.7031ZM85.4531 49.9688V25.9219H99.1465C100.975 25.9219 102.68 26.4609 104.262 27.5391C105.844 28.6055 107.104 30.0645 108.041 31.916C108.979 33.7676 109.447 35.7773 109.447 37.9453C109.447 40.1133 108.979 42.123 108.041 43.9746C107.104 45.8262 105.844 47.291 104.262 48.3691C102.68 49.4355 100.975 49.9688 99.1465 49.9688H85.4531ZM84.1875 51.2344H99.1465C100.682 51.2344 102.164 50.8828 103.594 50.1797C105.023 49.4766 106.26 48.5332 107.303 47.3496C108.346 46.166 109.178 44.7539 109.799 43.1133C110.432 41.4609 110.748 39.7383 110.748 37.9453C110.748 36.1523 110.432 34.4355 109.799 32.7949C109.178 31.1543 108.346 29.7422 107.303 28.5586C106.26 27.3633 105.023 26.4141 103.594 25.7109C102.164 25.0078 100.682 24.6562 99.1465 24.6562H84.1875V51.2344ZM99.1465 52.5H82.9219V23.3906H99.1465C101.432 23.3906 103.564 24.041 105.545 25.3418C107.525 26.6426 109.102 28.4121 110.273 30.6504C111.457 32.8887 112.049 35.3203 112.049 37.9453C112.049 39.9141 111.697 41.8008 110.994 43.6055C110.303 45.3984 109.377 46.9453 108.217 48.2461C107.057 49.5469 105.68 50.584 104.086 51.3574C102.504 52.1191 100.857 52.5 99.1465 52.5Z" fill="#43535B"/>
<path d="M45.3423 58.207C46.3953 58.207 46.9803 58.506 47.5133 58.831V59.871C46.9153 58.636 46.1613 58.337 45.4723 58.337C44.1853 58.337 43.3273 59.663 43.3273 61.899C43.3273 64.148 44.1853 65.5 45.4723 65.5C46.1613 65.5 46.9283 65.162 47.5133 63.966V65.006C46.9803 65.331 46.3953 65.63 45.3423 65.63C40.6103 65.63 40.5453 58.207 45.3423 58.207ZM52.5047 64.603C52.5047 63.16 52.5047 62.926 52.5047 61.483C52.5047 60.534 52.0237 60.144 51.5037 60.144C51.1007 60.144 50.7237 60.365 50.2947 60.729L50.1257 60.872V65.5H49.8397C49.3067 65.5 48.6957 65.409 48.6957 64.603V58.714C48.6957 57.778 49.2937 56.855 50.3077 56.855C51.0227 56.855 51.6857 57.388 51.6857 58.532C51.6857 59.156 51.4257 59.689 51.0877 60.053C51.4387 59.884 51.8157 59.793 52.2317 59.793C53.3107 59.793 53.9347 60.339 53.9347 61.47V65.5H53.6617C53.1287 65.5 52.5047 65.409 52.5047 64.603ZM50.1257 58.402V60.703L50.2687 60.586C50.4247 60.456 50.5937 60.339 50.7627 60.235C51.1657 59.923 51.5557 59.182 51.5557 58.545C51.5557 57.83 51.1657 57.505 50.7887 57.505C50.4507 57.505 50.1257 57.817 50.1257 58.402ZM57.9665 60.144C57.5635 60.144 57.1475 60.365 56.7185 60.729L56.5495 60.872V65.5H56.2635C55.7305 65.5 55.1195 65.396 55.1195 64.603V59.923H55.3925C55.9125 59.923 56.4975 60.014 56.5495 60.716L56.6925 60.586C57.1735 60.196 57.7585 59.793 58.5385 59.793C58.8895 59.793 59.1885 59.884 59.4095 60.196V61.041C58.8115 60.313 58.3565 60.144 57.9665 60.144ZM62.4138 65.63C60.5028 65.63 59.5408 64.304 59.5408 62.718C59.5408 61.132 60.5028 59.793 62.4138 59.793C64.3248 59.793 65.2868 61.132 65.2868 62.718C65.2868 64.304 64.3378 65.63 62.4138 65.63ZM62.4138 59.923C61.5428 59.923 61.1008 61.171 61.1008 62.705C61.1008 64.226 61.5428 65.5 62.4138 65.5C63.2978 65.5 63.7268 64.226 63.7268 62.705C63.7268 61.171 63.2848 59.923 62.4138 59.923ZM66.2279 64.603V59.923H66.5009C66.9819 59.923 67.5279 60.001 67.6319 60.586C68.2169 60.105 68.8279 59.793 69.5949 59.793C70.3749 59.793 70.9209 60.079 71.1549 60.677L71.2589 60.586C71.8439 60.105 72.4549 59.793 73.2349 59.793C74.3009 59.793 74.9249 60.339 74.9249 61.47V65.5H74.6389C74.1059 65.5 73.4949 65.396 73.4949 64.603V61.483C73.4949 60.534 73.0139 60.144 72.4939 60.144C72.1039 60.144 71.7139 60.365 71.2849 60.729L71.2069 60.807C71.2719 60.989 71.2979 61.223 71.2979 61.47V65.5H71.0119C70.4789 65.5 69.8679 65.396 69.8679 64.603V61.483C69.8679 60.534 69.3869 60.144 68.8669 60.144C68.4639 60.144 68.0869 60.378 67.6579 60.729C67.6579 60.755 67.6579 60.794 67.6579 60.82V65.5H67.3719C66.8389 65.5 66.2279 65.396 66.2279 64.603ZM78.6006 59.793C79.7186 59.793 80.8366 60.209 80.8366 60.95C80.8366 61.6 79.6276 61.821 78.6136 62.25C77.8596 62.562 77.2096 62.978 77.2226 63.771C77.2226 65.019 78.6916 65.266 79.5236 64.694C80.0566 64.343 80.4986 63.602 80.7456 62.783H80.8236V64.733C80.8236 65.175 80.9926 65.344 81.3306 65.253C81.1746 65.461 80.7586 65.63 80.3686 65.63C79.8096 65.63 79.5236 65.253 79.5236 64.694C79.0686 65.058 78.2106 65.63 77.2356 65.63C76.3776 65.63 75.7276 65.006 75.7276 64.2C75.7276 62.757 77.5476 62.653 78.6786 62.068C79.1336 61.834 79.5366 61.392 79.5366 60.846C79.5366 60.352 79.1596 59.923 78.4316 59.923C77.4956 59.923 76.9626 60.664 76.5596 61.457V60.417C77.1316 60.053 77.7556 59.793 78.6006 59.793ZM85.3313 58.337H87.7753C90.1153 58.337 91.2853 60.053 91.2983 61.912C91.2983 63.771 90.1283 65.5 87.7753 65.5H85.3183L85.3313 58.337ZM87.7753 58.467H86.7483V65.37H87.7753C88.9583 65.37 89.7383 63.576 89.7383 61.912C89.7253 60.248 88.9453 58.467 87.7753 58.467ZM97.1552 61.964H93.1902C93.2032 63.303 94.0482 64.603 95.5172 64.603C96.1022 64.603 96.6612 64.317 96.9992 63.745C96.6092 65.019 95.6082 65.617 94.5812 65.617C93.2162 65.617 91.8252 64.564 91.8252 62.705C91.8252 60.664 93.2812 59.793 94.6592 59.793C95.7902 59.793 97.0382 60.456 97.1552 61.964ZM93.1902 61.834H95.6472C95.7902 61.587 95.8292 61.301 95.8292 61.08C95.8292 60.417 95.2702 59.923 94.6072 59.923C93.9312 59.923 93.2292 60.469 93.1902 61.834ZM101.382 64.616C101.967 64.616 102.526 64.33 102.864 63.758C102.474 65.032 101.473 65.63 100.446 65.63C99.0945 65.63 97.6905 64.577 97.6905 62.718C97.6905 60.794 99.0035 59.793 100.524 59.793C101.369 59.793 102.123 60.053 102.513 60.3V61.34C102.045 60.417 101.252 59.923 100.537 59.923C98.3275 59.923 98.5225 64.616 101.382 64.616ZM106.263 65.63C104.352 65.63 103.39 64.304 103.39 62.718C103.39 61.132 104.352 59.793 106.263 59.793C108.174 59.793 109.136 61.132 109.136 62.718C109.136 64.304 108.187 65.63 106.263 65.63ZM106.263 59.923C105.392 59.923 104.95 61.171 104.95 62.705C104.95 64.226 105.392 65.5 106.263 65.5C107.147 65.5 107.576 64.226 107.576 62.705C107.576 61.171 107.134 59.923 106.263 59.923ZM112.925 60.144C112.522 60.144 112.106 60.365 111.677 60.729L111.508 60.872V65.5H111.222C110.689 65.5 110.078 65.396 110.078 64.603V59.923H110.351C110.871 59.923 111.456 60.014 111.508 60.716L111.651 60.586C112.132 60.196 112.717 59.793 113.497 59.793C113.848 59.793 114.147 59.884 114.368 60.196V61.041C113.77 60.313 113.315 60.144 112.925 60.144Z" fill="black"/>
</svg>
