<svg width="40" height="35" viewBox="0 0 40 35" fill="none" xmlns="http://www.w3.org/2000/svg">
<path d="M37.5483 0H25.2087C24.0883 0 23.1791 0.909257 23.1791 2.02959V14.3695C23.1791 15.4899 24.0883 16.3991 25.2087 16.3991H31.1148C31.0375 19.6302 30.2867 22.2159 28.8659 24.1602C27.7456 25.6947 26.049 26.965 23.7799 27.9678C22.7367 28.4264 22.2861 29.6605 22.7732 30.6915L24.2345 33.7766C24.7054 34.7669 25.8703 35.2012 26.877 34.7669C29.564 33.6059 31.8333 32.1365 33.684 30.3504C35.9411 28.1708 37.4875 25.7109 38.3238 22.9668C39.16 20.2228 39.5779 16.4803 39.5779 11.731V2.02959C39.5779 0.909297 38.6686 0 37.5483 0ZM4.30417 34.7587C6.95886 33.6019 9.21573 32.1326 11.0789 30.3504C13.356 28.1708 14.9107 25.7191 15.7469 22.9953C16.583 20.2716 17.0011 16.5168 17.0011 11.731V2.02959C17.0011 0.909257 16.0919 0 14.9715 0H2.63178C1.51146 0 0.602215 0.909257 0.602215 2.02959V14.3695C0.602215 15.4899 1.51146 16.3991 2.63178 16.3991H8.53781C8.46067 19.6302 7.70974 22.2159 6.28904 24.1602C5.16872 25.6947 3.47202 26.965 1.20297 27.9678C0.15977 28.4264 -0.290792 29.6605 0.196304 30.6915L1.65353 33.7684C2.12443 34.7587 3.29751 35.1972 4.30417 34.7587Z" fill="#CF6E37"/>
</svg>
