<svg width="17" height="17" viewBox="0 0 17 17" fill="none" xmlns="http://www.w3.org/2000/svg">
<g clip-path="url(#clip0_1535_9335)">
<path d="M15.5966 7.1436C15.6844 7.64868 15.7281 8.16042 15.7274 8.67306C15.7274 10.9625 14.909 12.8983 13.4849 14.2086H13.4868C12.2414 15.359 10.5295 16.025 8.49961 16.025C6.50386 16.025 4.58984 15.2322 3.17863 13.821C1.76742 12.4098 0.974609 10.4957 0.974609 8.49998C0.974609 6.50423 1.76742 4.59022 3.17863 3.17901C4.58984 1.76779 6.50386 0.974984 8.49961 0.974984C10.3676 0.953106 12.1717 1.6549 13.5338 2.93336L11.3854 5.08175C10.6088 4.34146 9.57239 3.93606 8.49961 3.953C6.53653 3.953 4.8688 5.2774 4.27432 7.06083C3.95912 7.99534 3.95912 9.00745 4.27432 9.94196H4.27714C4.87444 11.7226 6.53935 13.047 8.50243 13.047C9.51643 13.047 10.3874 12.7874 11.0628 12.3283H11.06C11.4521 12.0685 11.7876 11.732 12.0461 11.339C12.3046 10.946 12.4808 10.5046 12.5641 10.0417H8.49961V7.14454H15.5966V7.1436Z" fill="#E7413B"/>
</g>
<defs>
<clipPath id="clip0_1535_9335">
<rect width="15.05" height="15.05" fill="white" transform="translate(0.974609 0.974976)"/>
</clipPath>
</defs>
</svg>
