<svg width="16" height="17" viewBox="0 0 16 17" fill="none" xmlns="http://www.w3.org/2000/svg">
<g clip-path="url(#clip0_1535_8365)">
<path d="M8.14707 0.974976C6.10497 0.974976 5.84818 0.984382 5.04583 1.02013C4.24348 1.05775 3.69697 1.18379 3.2182 1.37004C2.71599 1.55893 2.2611 1.85524 1.88533 2.23823C1.50257 2.6142 1.2063 3.06903 1.01713 3.5711C0.830889 4.04894 0.703905 4.59638 0.66722 5.39591C0.631477 6.20015 0.62207 6.456 0.62207 8.50092C0.62207 10.544 0.631477 10.7998 0.66722 11.6022C0.704845 12.4036 0.830889 12.9501 1.01713 13.4288C1.20996 13.9236 1.46675 14.3431 1.88533 14.7617C2.30297 15.1803 2.72249 15.438 3.21725 15.6299C3.69697 15.8162 4.24254 15.9431 5.04395 15.9798C5.84724 16.0156 6.10309 16.025 8.14707 16.025C10.191 16.025 10.446 16.0156 11.2493 15.9798C12.0497 15.9422 12.5981 15.8162 13.0769 15.6299C13.5788 15.4409 14.0333 15.1446 14.4088 14.7617C14.8274 14.3431 15.0842 13.9236 15.277 13.4288C15.4623 12.9501 15.5893 12.4036 15.6269 11.6022C15.6627 10.7998 15.6721 10.544 15.6721 8.49998C15.6721 6.456 15.6627 6.20015 15.6269 5.39685C15.5893 4.59638 15.4623 4.04894 15.277 3.5711C15.0879 3.06902 14.7916 2.61418 14.4088 2.23823C14.0332 1.8551 13.5782 1.55877 13.0759 1.37004C12.5962 1.18379 12.0488 1.05681 11.2483 1.02013C10.445 0.984382 10.1901 0.974976 8.14519 0.974976H8.14801H8.14707ZM7.47264 2.33136H8.14801C10.1572 2.33136 10.3952 2.33794 11.1881 2.37463C11.9218 2.40755 12.3206 2.53077 12.5859 2.6333C12.9367 2.76969 13.1879 2.93336 13.4513 3.19673C13.7146 3.46011 13.8774 3.71031 14.0137 4.06211C14.1172 4.32642 14.2395 4.72525 14.2724 5.45893C14.3091 6.25188 14.3166 6.48986 14.3166 8.49809C14.3166 10.5063 14.3091 10.7452 14.2724 11.5382C14.2395 12.2719 14.1163 12.6698 14.0137 12.935C13.8931 13.2618 13.7005 13.5572 13.4503 13.7995C13.1869 14.0628 12.9367 14.2256 12.5849 14.362C12.3216 14.4654 11.9227 14.5877 11.1881 14.6216C10.3952 14.6573 10.1572 14.6658 8.14801 14.6658C6.13884 14.6658 5.89992 14.6573 5.10697 14.6216C4.37328 14.5877 3.9754 14.4654 3.71014 14.362C3.38327 14.2415 3.08757 14.0493 2.84477 13.7995C2.59433 13.5568 2.40147 13.2611 2.28039 12.9341C2.17786 12.6698 2.05464 12.2709 2.02172 11.5373C1.98598 10.7443 1.97845 10.5063 1.97845 8.49621C1.97845 6.48704 1.98598 6.25 2.02172 5.45705C2.05558 4.72337 2.17786 4.32454 2.28133 4.05928C2.41772 3.70843 2.58139 3.45728 2.84477 3.19391C3.10814 2.93053 3.35835 2.76781 3.71014 2.63142C3.9754 2.52795 4.37328 2.40567 5.10697 2.3718C5.80115 2.33982 6.07017 2.33042 7.47264 2.32948V2.33136V2.33136ZM12.1645 3.58051C12.0459 3.58051 11.9285 3.60386 11.8189 3.64924C11.7094 3.69462 11.6098 3.76114 11.526 3.84499C11.4421 3.92884 11.3756 4.02839 11.3302 4.13794C11.2848 4.2475 11.2615 4.36492 11.2615 4.48351C11.2615 4.60209 11.2848 4.71951 11.3302 4.82907C11.3756 4.93863 11.4421 5.03817 11.526 5.12202C11.6098 5.20588 11.7094 5.27239 11.8189 5.31777C11.9285 5.36315 12.0459 5.38651 12.1645 5.38651C12.404 5.38651 12.6337 5.29137 12.803 5.12202C12.9723 4.95268 13.0675 4.723 13.0675 4.48351C13.0675 4.24402 12.9723 4.01433 12.803 3.84499C12.6337 3.67564 12.404 3.58051 12.1645 3.58051V3.58051ZM8.14801 4.63589C7.63544 4.62789 7.12639 4.72194 6.65051 4.91256C6.17464 5.10319 5.74144 5.38657 5.37613 5.74622C5.01083 6.10587 4.72072 6.5346 4.52269 7.00745C4.32467 7.48029 4.22269 7.98781 4.22269 8.50045C4.22269 9.01308 4.32467 9.5206 4.52269 9.99344C4.72072 10.4663 5.01083 10.895 5.37613 11.2547C5.74144 11.6143 6.17464 11.8977 6.65051 12.0883C7.12639 12.2789 7.63544 12.373 8.14801 12.365C9.16251 12.3492 10.1301 11.9351 10.8419 11.212C11.5538 10.489 11.9527 9.51507 11.9527 8.50045C11.9527 7.48582 11.5538 6.51188 10.8419 5.78886C10.1301 5.06584 9.16251 4.65172 8.14801 4.63589V4.63589ZM8.14801 5.99133C8.81335 5.99133 9.45143 6.25563 9.92189 6.72609C10.3924 7.19656 10.6567 7.83464 10.6567 8.49998C10.6567 9.16531 10.3924 9.80339 9.92189 10.2739C9.45143 10.7443 8.81335 11.0086 8.14801 11.0086C7.48268 11.0086 6.84459 10.7443 6.37413 10.2739C5.90367 9.80339 5.63936 9.16531 5.63936 8.49998C5.63936 7.83464 5.90367 7.19656 6.37413 6.72609C6.84459 6.25563 7.48268 5.99133 8.14801 5.99133V5.99133Z" fill="url(#paint0_linear_1535_8365)"/>
</g>
<defs>
<linearGradient id="paint0_linear_1535_8365" x1="0.62207" y1="8.49998" x2="15.6721" y2="8.49998" gradientUnits="userSpaceOnUse">
<stop stop-color="#DF0037"/>
<stop offset="1" stop-color="#BE0491"/>
</linearGradient>
<clipPath id="clip0_1535_8365">
<rect width="15.05" height="15.05" fill="white" transform="translate(0.62207 0.974976)"/>
</clipPath>
</defs>
</svg>
