<svg width="15" height="17" viewBox="0 0 15 17" fill="none" xmlns="http://www.w3.org/2000/svg">
<g clip-path="url(#clip0_917_26933)">
<path d="M12.9688 7.71295H2.03125C1.16831 7.71295 0.46875 8.41769 0.46875 9.28703V14.7963C0.46875 15.6656 1.16831 16.3704 2.03125 16.3704H12.9688C13.8317 16.3704 14.5312 15.6656 14.5312 14.7963V9.28703C14.5312 8.41769 13.8317 7.71295 12.9688 7.71295Z" stroke="#9A9A9A" stroke-linecap="round" stroke-linejoin="round"/>
<path d="M3.59375 7.71297V4.56482C3.59375 3.52115 4.0053 2.52022 4.73786 1.78223C5.47043 1.04424 6.464 0.629639 7.5 0.629639C8.536 0.629639 9.52957 1.04424 10.2621 1.78223C10.9947 2.52022 11.4062 3.52115 11.4062 4.56482V7.71297" stroke="#9A9A9A" stroke-linecap="round" stroke-linejoin="round"/>
</g>
<defs>
<clipPath id="clip0_917_26933">
<rect width="15" height="17" fill="white"/>
</clipPath>
</defs>
</svg>
