<svg width="117" height="44" viewBox="0 0 117 44" fill="none" xmlns="http://www.w3.org/2000/svg">
<g clip-path="url(#clip0_1381_5567)">
<path d="M55.0781 13.4844L54.6172 13.7891C54.3359 13.3724 53.9688 13.0443 53.5156 12.8047C53.0677 12.5599 52.5807 12.4375 52.0547 12.4375C51.2005 12.4375 50.4714 12.7396 49.8672 13.3438C49.263 13.9479 48.9609 14.6771 48.9609 15.5312C48.9609 16.3854 49.263 17.1146 49.8672 17.7188C50.4714 18.3229 51.2005 18.625 52.0547 18.625C52.5807 18.625 53.0677 18.5026 53.5156 18.2578C53.9688 18.013 54.3359 17.6823 54.6172 17.2656L55.0703 17.5938C54.737 18.0833 54.3047 18.4714 53.7734 18.7578C53.2422 19.0443 52.6693 19.1875 52.0547 19.1875C51.5599 19.1875 51.0859 19.0911 50.6328 18.8984C50.1849 18.7057 49.7969 18.4453 49.4688 18.1172C49.1406 17.7891 48.8802 17.401 48.6875 16.9531C48.4948 16.5 48.3984 16.026 48.3984 15.5312C48.3984 15.0365 48.4948 14.5651 48.6875 14.1172C48.8802 13.6641 49.1406 13.2734 49.4688 12.9453C49.7969 12.6172 50.1849 12.3568 50.6328 12.1641C51.0859 11.9714 51.5599 11.875 52.0547 11.875C52.6745 11.875 53.25 12.0208 53.7812 12.3125C54.3125 12.599 54.7448 12.9896 55.0781 13.4844ZM56.0078 12.8438L55.5391 13.1484C55.1536 12.5859 54.6536 12.1406 54.0391 11.8125C53.4297 11.4792 52.7682 11.3125 52.0547 11.3125C51.2891 11.3125 50.5833 11.5026 49.9375 11.8828C49.2917 12.2578 48.7786 12.7682 48.3984 13.4141C48.0234 14.0599 47.8359 14.7656 47.8359 15.5312C47.8359 16.2969 48.0234 17.0026 48.3984 17.6484C48.7786 18.2943 49.2917 18.8073 49.9375 19.1875C50.5833 19.5625 51.2891 19.75 52.0547 19.75C52.7682 19.75 53.4323 19.5833 54.0469 19.25C54.6615 18.9167 55.1615 18.4661 55.5469 17.8984L56.0078 18.2188C55.5703 18.8646 55.0026 19.375 54.3047 19.75C53.612 20.125 52.862 20.3125 52.0547 20.3125C51.1901 20.3125 50.3906 20.099 49.6562 19.6719C48.9219 19.2448 48.3411 18.6641 47.9141 17.9297C47.487 17.1953 47.2734 16.3958 47.2734 15.5312C47.2734 14.6667 47.487 13.8672 47.9141 13.1328C48.3411 12.3984 48.9219 11.8177 49.6562 11.3906C50.3906 10.9635 51.1901 10.75 52.0547 10.75C52.862 10.75 53.612 10.9375 54.3047 11.3125C55.0026 11.6875 55.5703 12.1979 56.0078 12.8438ZM56.9453 12.2188L56.4766 12.5234C55.987 11.8047 55.3516 11.237 54.5703 10.8203C53.7943 10.3984 52.9557 10.1875 52.0547 10.1875C51.3307 10.1875 50.638 10.3281 49.9766 10.6094C49.3151 10.8906 48.7448 11.2708 48.2656 11.75C47.7917 12.224 47.4141 12.7917 47.1328 13.4531C46.8516 14.1146 46.7109 14.8073 46.7109 15.5312C46.7109 16.2552 46.8516 16.9479 47.1328 17.6094C47.4141 18.2708 47.7917 18.8411 48.2656 19.3203C48.7448 19.7943 49.3151 20.1719 49.9766 20.4531C50.638 20.7344 51.3307 20.875 52.0547 20.875C52.9609 20.875 53.8021 20.6641 54.5781 20.2422C55.3542 19.8203 55.987 19.25 56.4766 18.5312L56.9297 18.8672C56.388 19.6589 55.6875 20.2865 54.8281 20.75C53.974 21.2083 53.0495 21.4375 52.0547 21.4375C50.987 21.4375 50 21.1745 49.0938 20.6484C48.1875 20.1172 47.4688 19.3984 46.9375 18.4922C46.4115 17.5859 46.1484 16.599 46.1484 15.5312C46.1484 14.4635 46.4115 13.4766 46.9375 12.5703C47.4688 11.6641 48.1875 10.9479 49.0938 10.4219C50 9.89062 50.987 9.625 52.0547 9.625C53.0547 9.625 53.9844 9.85938 54.8438 10.3281C55.7031 10.7917 56.4036 11.4219 56.9453 12.2188ZM57.8672 11.5781L57.3984 11.8828C56.8047 11.013 56.0365 10.3255 55.0938 9.82031C54.1562 9.3151 53.1432 9.0625 52.0547 9.0625C51.1797 9.0625 50.3411 9.23438 49.5391 9.57812C48.7422 9.91667 48.0547 10.375 47.4766 10.9531C46.8984 11.5312 46.4375 12.2214 46.0938 13.0234C45.7552 13.8203 45.5859 14.6562 45.5859 15.5312C45.5859 16.4062 45.7552 17.2448 46.0938 18.0469C46.4375 18.8438 46.8984 19.5312 47.4766 20.1094C48.0547 20.6875 48.7422 21.1484 49.5391 21.4922C50.3411 21.8307 51.1797 22 52.0547 22C53.1432 22 54.1589 21.7448 55.1016 21.2344C56.0443 20.724 56.8125 20.0339 57.4062 19.1641L57.8594 19.5078C57.2135 20.4453 56.3802 21.1901 55.3594 21.7422C54.3385 22.2891 53.237 22.5625 52.0547 22.5625C51.1016 22.5625 50.1901 22.375 49.3203 22C48.4557 21.6302 47.7083 21.1328 47.0781 20.5078C46.4531 19.8776 45.9531 19.1302 45.5781 18.2656C45.2083 17.3958 45.0234 16.4844 45.0234 15.5312C45.0234 14.5781 45.2083 13.6693 45.5781 12.8047C45.9531 11.9349 46.4531 11.1875 47.0781 10.5625C47.7083 9.93229 48.4557 9.43229 49.3203 9.0625C50.1901 8.6875 51.1016 8.5 52.0547 8.5C53.2422 8.5 54.3464 8.77604 55.3672 9.32812C56.388 9.88021 57.2214 10.6302 57.8672 11.5781Z" fill="#CF6E37"/>
<path d="M62.3281 18.625V12.4375C62.3281 12.4375 63.6068 12.4375 66.1641 12.4375C66.7839 12.4375 67.3151 12.7422 67.7578 13.3516C68.2057 13.9557 68.4297 14.6823 68.4297 15.5312C68.4297 16.3854 68.2057 17.1146 67.7578 17.7188C67.3151 18.3229 66.7839 18.625 66.1641 18.625H62.3281ZM62.8906 18.0625H66.1641C66.6276 18.0625 67.0234 17.8151 67.3516 17.3203C67.6849 16.8255 67.8516 16.2292 67.8516 15.5312C67.8516 14.8281 67.6849 14.2318 67.3516 13.7422C67.0234 13.2474 66.6276 13 66.1641 13H62.8906V18.0625ZM61.7656 19.1875H66.1641C66.9401 19.1875 67.6068 18.8307 68.1641 18.1172C68.7266 17.3984 69.0078 16.5365 69.0078 15.5312C69.0078 14.8698 68.8776 14.2578 68.6172 13.6953C68.362 13.1328 68.0156 12.6901 67.5781 12.3672C67.1458 12.0391 66.6745 11.875 66.1641 11.875H61.7656V19.1875ZM61.2031 19.75V11.3125H66.1641C66.7734 11.3125 67.3411 11.5 67.8672 11.875C68.3932 12.25 68.8099 12.763 69.1172 13.4141C69.4297 14.0599 69.5859 14.7656 69.5859 15.5312C69.5859 16.2917 69.4297 16.9974 69.1172 17.6484C68.8099 18.2995 68.3932 18.8125 67.8672 19.1875C67.3411 19.5625 66.7734 19.75 66.1641 19.75H61.2031ZM60.6406 20.3125H66.1641C66.8776 20.3125 67.5391 20.099 68.1484 19.6719C68.763 19.2448 69.2526 18.6641 69.6172 17.9297C69.9818 17.1953 70.1641 16.3958 70.1641 15.5312C70.1641 14.6719 69.9818 13.875 69.6172 13.1406C69.2526 12.401 68.763 11.8177 68.1484 11.3906C67.5339 10.9635 66.8724 10.75 66.1641 10.75H60.6406V20.3125ZM60.0781 20.875V10.1875H66.1641C66.9766 10.1875 67.7344 10.4271 68.4375 10.9062C69.1406 11.3802 69.7005 12.0286 70.1172 12.8516C70.5339 13.6745 70.7422 14.5677 70.7422 15.5312C70.7422 16.4948 70.5339 17.388 70.1172 18.2109C69.7005 19.0339 69.1406 19.6849 68.4375 20.1641C67.7344 20.638 66.9766 20.875 66.1641 20.875H60.0781ZM59.5156 21.4375H66.1641C66.8464 21.4375 67.5052 21.2812 68.1406 20.9688C68.776 20.6562 69.3255 20.237 69.7891 19.7109C70.2526 19.1849 70.6224 18.5573 70.8984 17.8281C71.1797 17.0938 71.3203 16.3281 71.3203 15.5312C71.3203 14.7344 71.1797 13.9714 70.8984 13.2422C70.6224 12.513 70.2526 11.8854 69.7891 11.3594C69.3255 10.8281 68.776 10.4062 68.1406 10.0938C67.5052 9.78125 66.8464 9.625 66.1641 9.625H59.5156V21.4375ZM66.1641 22H58.9531V9.0625H66.1641C67.1797 9.0625 68.1276 9.35156 69.0078 9.92969C69.888 10.5078 70.5885 11.2943 71.1094 12.2891C71.6354 13.2839 71.8984 14.3646 71.8984 15.5312C71.8984 16.4062 71.7422 17.2448 71.4297 18.0469C71.1224 18.8438 70.7109 19.5312 70.1953 20.1094C69.6797 20.6875 69.0677 21.1484 68.3594 21.4922C67.6562 21.8307 66.9245 22 66.1641 22Z" fill="#5A7680"/>
<path d="M34.1727 35.39C34.9827 35.39 35.4327 35.62 35.8427 35.87V36.67C35.3827 35.72 34.8027 35.49 34.2727 35.49C33.2827 35.49 32.6227 36.51 32.6227 38.23C32.6227 39.96 33.2827 41 34.2727 41C34.8027 41 35.3927 40.74 35.8427 39.82V40.62C35.4327 40.87 34.9827 41.1 34.1727 41.1C30.5327 41.1 30.4827 35.39 34.1727 35.39ZM39.6822 40.31C39.6822 39.2 39.6822 39.02 39.6822 37.91C39.6822 37.18 39.3122 36.88 38.9122 36.88C38.6022 36.88 38.3122 37.05 37.9822 37.33L37.8522 37.44V41H37.6322C37.2222 41 36.7522 40.93 36.7522 40.31V35.78C36.7522 35.06 37.2122 34.35 37.9922 34.35C38.5422 34.35 39.0522 34.76 39.0522 35.64C39.0522 36.12 38.8522 36.53 38.5922 36.81C38.8622 36.68 39.1522 36.61 39.4722 36.61C40.3022 36.61 40.7822 37.03 40.7822 37.9V41H40.5722C40.1622 41 39.6822 40.93 39.6822 40.31ZM37.8522 35.54V37.31L37.9622 37.22C38.0822 37.12 38.2122 37.03 38.3422 36.95C38.6522 36.71 38.9522 36.14 38.9522 35.65C38.9522 35.1 38.6522 34.85 38.3622 34.85C38.1022 34.85 37.8522 35.09 37.8522 35.54ZM43.8836 36.88C43.5736 36.88 43.2536 37.05 42.9236 37.33L42.7936 37.44V41H42.5736C42.1636 41 41.6936 40.92 41.6936 40.31V36.71H41.9036C42.3036 36.71 42.7536 36.78 42.7936 37.32L42.9036 37.22C43.2736 36.92 43.7236 36.61 44.3236 36.61C44.5936 36.61 44.8236 36.68 44.9936 36.92V37.57C44.5336 37.01 44.1836 36.88 43.8836 36.88ZM47.3045 41.1C45.8345 41.1 45.0945 40.08 45.0945 38.86C45.0945 37.64 45.8345 36.61 47.3045 36.61C48.7745 36.61 49.5145 37.64 49.5145 38.86C49.5145 40.08 48.7845 41.1 47.3045 41.1ZM47.3045 36.71C46.6345 36.71 46.2945 37.67 46.2945 38.85C46.2945 40.02 46.6345 41 47.3045 41C47.9845 41 48.3145 40.02 48.3145 38.85C48.3145 37.67 47.9745 36.71 47.3045 36.71ZM50.2385 40.31V36.71H50.4485C50.8185 36.71 51.2385 36.77 51.3185 37.22C51.7685 36.85 52.2385 36.61 52.8285 36.61C53.4285 36.61 53.8485 36.83 54.0285 37.29L54.1085 37.22C54.5585 36.85 55.0285 36.61 55.6285 36.61C56.4485 36.61 56.9285 37.03 56.9285 37.9V41H56.7085C56.2985 41 55.8285 40.92 55.8285 40.31V37.91C55.8285 37.18 55.4585 36.88 55.0585 36.88C54.7585 36.88 54.4585 37.05 54.1285 37.33L54.0685 37.39C54.1185 37.53 54.1385 37.71 54.1385 37.9V41H53.9185C53.5085 41 53.0385 40.92 53.0385 40.31V37.91C53.0385 37.18 52.6685 36.88 52.2685 36.88C51.9585 36.88 51.6685 37.06 51.3385 37.33C51.3385 37.35 51.3385 37.38 51.3385 37.4V41H51.1185C50.7085 41 50.2385 40.92 50.2385 40.31ZM59.7559 36.61C60.6159 36.61 61.4759 36.93 61.4759 37.5C61.4759 38 60.5459 38.17 59.7659 38.5C59.1859 38.74 58.6859 39.06 58.6959 39.67C58.6959 40.63 59.8259 40.82 60.4659 40.38C60.8759 40.11 61.2159 39.54 61.4059 38.91H61.4659V40.41C61.4659 40.75 61.5959 40.88 61.8559 40.81C61.7359 40.97 61.4159 41.1 61.1159 41.1C60.6859 41.1 60.4659 40.81 60.4659 40.38C60.1159 40.66 59.4559 41.1 58.7059 41.1C58.0459 41.1 57.5459 40.62 57.5459 40C57.5459 38.89 58.9459 38.81 59.8159 38.36C60.1659 38.18 60.4759 37.84 60.4759 37.42C60.4759 37.04 60.1859 36.71 59.6259 36.71C58.9059 36.71 58.4959 37.28 58.1859 37.89V37.09C58.6259 36.81 59.1059 36.61 59.7559 36.61ZM67.3455 35.49H69.2255C71.0255 35.49 71.9255 36.81 71.9355 38.24C71.9355 39.67 71.0355 41 69.2255 41H67.3355L67.3455 35.49ZM69.2255 35.59H68.4355V40.9H69.2255C70.1355 40.9 70.7355 39.52 70.7355 38.24C70.7255 36.96 70.1255 35.59 69.2255 35.59ZM76.4409 38.28H73.3909C73.4009 39.31 74.0509 40.31 75.1809 40.31C75.6309 40.31 76.0609 40.09 76.3209 39.65C76.0209 40.63 75.2509 41.09 74.4609 41.09C73.4109 41.09 72.3409 40.28 72.3409 38.85C72.3409 37.28 73.4609 36.61 74.5209 36.61C75.3909 36.61 76.3509 37.12 76.4409 38.28ZM73.3909 38.18H75.2809C75.3909 37.99 75.4209 37.77 75.4209 37.6C75.4209 37.09 74.9909 36.71 74.4809 36.71C73.9609 36.71 73.4209 37.13 73.3909 38.18ZM79.6926 40.32C80.1426 40.32 80.5726 40.1 80.8326 39.66C80.5326 40.64 79.7626 41.1 78.9726 41.1C77.9326 41.1 76.8526 40.29 76.8526 38.86C76.8526 37.38 77.8626 36.61 79.0326 36.61C79.6826 36.61 80.2626 36.81 80.5626 37V37.8C80.2026 37.09 79.5926 36.71 79.0426 36.71C77.3426 36.71 77.4926 40.32 79.6926 40.32ZM83.4471 41.1C81.9771 41.1 81.2371 40.08 81.2371 38.86C81.2371 37.64 81.9771 36.61 83.4471 36.61C84.9171 36.61 85.6571 37.64 85.6571 38.86C85.6571 40.08 84.9271 41.1 83.4471 41.1ZM83.4471 36.71C82.7771 36.71 82.4371 37.67 82.4371 38.85C82.4371 40.02 82.7771 41 83.4471 41C84.1271 41 84.4571 40.02 84.4571 38.85C84.4571 37.67 84.1171 36.71 83.4471 36.71ZM88.5711 36.88C88.2611 36.88 87.9411 37.05 87.6111 37.33L87.4811 37.44V41H87.2611C86.8511 41 86.3811 40.92 86.3811 40.31V36.71H86.5911C86.9911 36.71 87.4411 36.78 87.4811 37.32L87.5911 37.22C87.9611 36.92 88.4111 36.61 89.0111 36.61C89.2811 36.61 89.5111 36.68 89.6811 36.92V37.57C89.2211 37.01 88.8711 36.88 88.5711 36.88Z" fill="black"/>
</g>
<defs>
<clipPath id="clip0_1381_5567">
<rect width="117" height="44" fill="white"/>
</clipPath>
</defs>
</svg>
